<svg version="1.0" xmlns="http://www.w3.org/2000/svg" xmlns:xlink="http://www.w3.org/1999/xlink" viewBox="0 0 497.038 387.731">
    <defs>
        <linearGradient id="gradient" x1="0%" y1="0%" x2="100%" y2="100%">
            <stop offset="0%" style="stop-color:#FF3366;">
                <animate attributeName="stop-color" 
                    values="#FF3366; #33CCFF; #FF66CC; #3366FF; #FF3366"
                    dur="4s" repeatCount="indefinite"/>
            </stop>
            <stop offset="100%" style="stop-color:#33CCFF;">
                <animate attributeName="stop-color" 
                    values="#33CCFF; #FF66CC; #3366FF; #FF3366; #33CCFF"
                    dur="4s" repeatCount="indefinite"/>
            </stop>
        </linearGradient>
        <filter id="neon">
            <feGaussianBlur stdDeviation="2" result="blur"/>
            <feFlood flood-color="#33CCFF" flood-opacity="0.5" result="color"/>
            <feComposite in="color" in2="blur" operator="in" result="glow"/>
            <feMerge>
                <feMergeNode in="glow"/>
                <feMergeNode in="glow"/>
                <feMergeNode in="SourceGraphic"/>
            </feMerge>
        </filter>
        <style>
            @keyframes zoomSpin {
                0% { transform: scale(0.5) rotate(-180deg); opacity: 0; filter: hue-rotate(0deg); }
                60% { transform: scale(1.1) rotate(10deg); opacity: 1; filter: hue-rotate(180deg); }
                100% { transform: scale(1) rotate(0deg); opacity: 1; filter: hue-rotate(360deg); }
            }
            @keyframes neonPulse {
                0% { filter: drop-shadow(0 0 5px #33CCFF) drop-shadow(0 0 10px #33CCFF); }
                50% { filter: drop-shadow(0 0 10px #FF3366) drop-shadow(0 0 20px #FF3366); }
                100% { filter: drop-shadow(0 0 5px #33CCFF) drop-shadow(0 0 10px #33CCFF); }
            }
            @keyframes rainbow {
                0% { filter: hue-rotate(0deg); }
                100% { filter: hue-rotate(360deg); }
            }
            @keyframes glitch {
                0% { transform: translate(0); }
                20% { transform: translate(-2px, 2px); }
                40% { transform: translate(2px, -2px); }
                60% { transform: translate(-2px, -2px); }
                80% { transform: translate(2px, 2px); }
                100% { transform: translate(0); }
            }
            .logo-symbol {
                fill: url(#gradient);
                transform-origin: center;
                animation: zoomSpin 1.2s cubic-bezier(0.4, 0, 0.2, 1) forwards,
                         neonPulse 2s ease-in-out infinite;
            }
            .text-main {
                animation: rainbow 4s linear infinite;
            }
            .text-main path {
                fill: url(#gradient);
                opacity: 0;
                animation: glitch 0.2s linear infinite,
                         slideInScale 0.8s cubic-bezier(0.34, 1.56, 0.64, 1) forwards;
            }
            .text-tagline path {
                fill: url(#gradient);
                opacity: 0;
                animation: neonPulse 2s ease-in-out infinite,
                         bounceUp 1s cubic-bezier(0.34, 1.56, 0.64, 1) forwards;
            }
            @keyframes slideInScale {
                0% { transform: translateX(-50px) scale(0.8); opacity: 0; }
                60% { transform: translateX(10px) scale(1.05); opacity: 1; }
                100% { transform: translateX(0) scale(1); opacity: 1; }
            }
            @keyframes bounceUp {
                0% { transform: translateY(40px); opacity: 0; }
                60% { transform: translateY(-10px); opacity: 1; }
                100% { transform: translateY(0); opacity: 1; }
            }
            /* Stagger text animations */
            .text-main path:nth-child(1) { animation-delay: 1.1s; }
            .text-main path:nth-child(2) { animation-delay: 1.15s; }
            .text-main path:nth-child(3) { animation-delay: 1.2s; }
            .text-main path:nth-child(4) { animation-delay: 1.25s; }
            .text-main path:nth-child(5) { animation-delay: 1.3s; }
            .text-main path:nth-child(6) { animation-delay: 1.35s; }
            .text-main path:nth-child(7) { animation-delay: 1.4s; }
            .text-main path:nth-child(8) { animation-delay: 1.45s; }
            .text-main path:nth-child(9) { animation-delay: 1.5s; }
            .text-main path:nth-child(10) { animation-delay: 1.55s; }
        </style>
    </defs>
    
    <!-- Logo Symbol -->
    <g class="logo-symbol">
        <path d="M251.949,144.986l35.745-31.105l42.617-21.409l-35.151,29.7c0.753,1.231,1.456,2.495,2.09,3.793 l60.123-33.895l-56.43,43.845c0.96,3.826,1.467,7.81,1.467,11.915c0,28.231-24.089,51.115-53.807,51.115 c-9.564,0-18.545-2.367-26.324-6.524l62.789-34.108l-45.453,34.627c2.904,0.581,5.912,0.895,8.988,0.895 c25.158,0,45.543-20.6,45.543-46.005c0-8.099-2.068-15.704-5.703-22.312L251.949,144.986z"/>
        <path d="M208.49,169.644c-3.471-6.494-5.434-13.922-5.434-21.815c0-25.41,20.389-46.011,45.545-46.011 c2.748,0,5.438,0.243,8.053,0.716l0.349,0.441l-45.24,33.524l63.187-33.27c-7.703-4.026-16.944-6.526-26.348-6.526 c-29.718,0-53.81,22.894-53.81,51.125c0,4.024,0.488,7.938,1.414,11.698l-56.54,43.617l60.031-33.956 c0.739,1.521,1.551,3.001,2.437,4.432l-37.425,30.13l44.432-22.014l35.744-32.108L208.49,169.644"/>
        <polygon points="190.963,204.16 210.755,183.757 265.688,153.465 220.242,190.421"/>
        <polygon points="232.364,140.942 276.989,104.996 305.467,92.07 286.284,111.661"/>
    </g>

    <!-- Main Text -->
    <g class="text-main">
        <path d="M130.341,222.032h5.185l7.713,13.798l7.671-13.798h5.228v29.997h-4.928v-21.211l-7.971,13.884h-0.129 l-7.928-13.799v21.127h-4.842V222.032z"/>
        <path d="M162.435,222.032h4.971v29.997h-4.971V222.032z"/>
        <path d="M173.704,222.032h4.628l13.199,20.012v-20.012h4.842v29.997h-4.2l-13.584-20.612v20.612h-4.885V222.032z"/>
        <path d="M202.456,222.032h18.898v4.5h-13.97v8.141h12.384v4.5h-12.384v8.356h14.184v4.5h-19.112V222.032z"/>
        <path d="M224.222,248.086l3-3.728c2.228,2.014,4.714,3.556,7.885,3.556c2.871,0,4.714-1.586,4.714-3.814v-0.042 c0-1.885-0.986-3.128-5.742-4.885c-5.699-2.143-8.656-4.242-8.656-9.041v-0.087c0-4.928,3.942-8.399,9.513-8.399 c3.471,0,6.685,1.115,9.428,3.515l-2.828,3.813c-2.057-1.672-4.328-2.828-6.728-2.828c-2.7,0-4.371,1.499-4.371,3.472v0.042 c0,2.099,1.114,3.214,6.214,5.185c5.571,2.144,8.142,4.457,8.142,8.829v0.085c0,5.271-4.114,8.657-9.727,8.657 C231.207,252.415,227.479,251.086,224.222,248.086z"/>
    </g>

    <!-- Tagline Text -->
    <g class="text-tagline">
        <path d="M194.745,265.058h4.825l11.07,30.175h-5.212l-2.499-7.072h-11.716l-2.499,7.072h-5.04L194.745,265.058z M201.378,283.746l-4.308-12.044l-4.308,12.044H201.378z"/>
        <path d="M214.686,264.287h4.868v30.946h-4.868V264.287z"/>
        <path d="M225.109,287.732v-15.216h4.868v13.844c0,3.172,1.507,4.929,4.049,4.929s4.308-1.886,4.308-5.015v-13.759 h4.911v22.717h-4.911v-3.3c-1.292,2.015-3.102,3.729-6.203,3.729C227.694,295.662,225.109,292.618,225.109,287.732z"/>
        <path d="M248.755,272.516h4.868v3.3c1.335-2.015,3.101-3.729,6.117-3.729c2.8,0,4.824,1.415,5.901,3.644 c1.551-2.058,3.618-3.644,6.677-3.644c4.221,0,6.978,2.786,6.978,7.93v15.216h-4.868v-13.802c0-3.257-1.378-4.972-3.876-4.972 c-2.369,0-4.092,1.8-4.092,5.015v13.759h-4.868v-13.844c0-3.215-1.421-4.929-3.833-4.929c-2.456,0-4.135,1.929-4.135,5.058 v13.716h-4.868V272.516z"/>
    </g>
</svg>